<?xml version="1.0" standalone="no"?>
<!DOCTYPE svg PUBLIC "-//W3C//DTD SVG 20010904//EN"
 "http://www.w3.org/TR/2001/REC-SVG-20010904/DTD/svg10.dtd">
<svg version="1.0" xmlns="http://www.w3.org/2000/svg"
 width="4001.000000pt" height="4001.000000pt" viewBox="0 0 4001.000000 4001.000000"
 preserveAspectRatio="xMidYMid meet">

<g transform="translate(0.000000,4001.000000) scale(0.100000,-0.100000)"
fill="#000000" stroke="none">
<path d="M17780 33703 c-957 -16 -1952 -164 -2885 -428 -3275 -928 -5986
-3317 -7325 -6455 -751 -1760 -1042 -3680 -849 -5595 231 -2294 1138 -4424
2638 -6195 273 -322 671 -737 975 -1014 810 -741 1700 -1350 2661 -1821 127
-62 250 -122 275 -133 1324 -599 2653 -928 4090 -1012 528 -31 1198 -19 1680
30 52 5 145 14 205 21 515 51 1216 184 1760 334 1486 409 2875 1118 4079 2083
76 61 143 109 147 106 5 -3 19 -24 30 -46 24 -46 196 -319 243 -386 146 -204
282 -374 445 -557 85 -96 351 -353 463 -448 335 -286 720 -542 1087 -726 578
-290 1200 -471 1861 -540 357 -38 858 -32 1210 15 287 38 612 106 641 135 14
14 24 17 35 11 19 -11 64 -4 64 10 0 5 6 8 13 5 6 -2 26 1 42 8 17 6 35 10 42
8 6 -2 13 0 16 4 3 4 -10 8 -28 8 -18 0 -31 -3 -29 -7 2 -3 -12 -6 -30 -5 -19
0 -33 4 -30 8 2 4 -8 10 -24 14 -15 3 -37 16 -49 27 -12 11 -26 17 -32 14 -11
-7 -47 9 -69 31 -7 7 -19 13 -26 13 -7 0 -21 9 -31 20 -10 12 -25 18 -33 15
-14 -5 -48 10 -70 32 -7 7 -20 13 -28 13 -18 0 -113 47 -132 66 -7 8 -20 14
-28 14 -18 0 -113 47 -132 66 -7 8 -23 14 -35 14 -28 0 -137 52 -137 66 0 6
-18 14 -40 18 -22 3 -40 11 -40 16 0 6 -7 10 -15 10 -24 0 -65 22 -65 35 0 7
-18 15 -40 19 -22 3 -40 10 -40 15 0 5 -13 11 -29 14 -16 3 -36 13 -44 22 -9
8 -22 15 -31 15 -8 0 -17 4 -20 9 -3 5 -18 12 -33 15 -47 12 -83 30 -83 43 0
7 -9 13 -19 13 -11 0 -22 4 -25 9 -3 5 -18 12 -33 15 -47 12 -83 30 -83 43 0
8 -15 13 -40 13 -29 0 -40 4 -40 15 0 8 -6 15 -13 15 -23 0 -67 25 -67 38 0 7
-15 12 -40 12 -29 0 -40 4 -40 15 0 9 -9 15 -22 15 -26 1 -58 22 -58 39 0 6
-17 11 -40 11 -29 0 -40 4 -40 15 0 9 -9 15 -22 15 -25 1 -58 22 -58 37 0 6
-23 13 -50 15 -31 3 -59 13 -73 25 -29 27 -97 21 -97 -8 0 -10 -4 -19 -10 -19
-5 0 -10 9 -10 20 0 11 5 20 10 20 20 0 10 39 -12 45 -13 4 -32 15 -43 25 -28
24 -95 16 -95 -11 0 -10 -4 -19 -10 -19 -5 0 -10 9 -10 20 0 11 5 20 10 20 20
0 10 39 -12 45 -13 4 -33 16 -45 27 -12 11 -26 17 -32 14 -11 -7 -47 9 -69 31
-7 7 -19 13 -26 13 -7 0 -21 9 -31 20 -10 12 -25 18 -33 15 -14 -5 -48 10 -70
32 -7 7 -20 13 -28 13 -18 0 -113 47 -132 66 -7 8 -20 14 -28 14 -18 0 -113
47 -132 66 -7 8 -23 14 -35 14 -28 0 -137 52 -137 66 0 6 -18 14 -40 18 -22 3
-40 11 -40 16 0 6 -7 10 -15 10 -24 0 -65 22 -65 35 0 7 -18 15 -40 19 -22 3
-40 10 -40 15 0 5 -13 11 -29 14 -16 3 -36 13 -44 22 -9 8 -22 15 -31 15 -8 0
-17 4 -20 9 -3 5 -18 12 -33 15 -47 12 -83 30 -83 43 0 7 -9 13 -19 13 -11 0
-22 4 -25 9 -3 5 -18 12 -33 15 -47 12 -83 30 -83 43 0 8 -15 13 -40 13 -29 0
-40 4 -40 15 0 8 -6 15 -13 15 -23 0 -67 25 -67 38 0 7 -15 12 -40 12 -29 0
-40 4 -40 15 0 9 -9 15 -22 15 -26 1 -58 22 -58 39 0 6 -17 11 -40 11 -29 0
-40 4 -40 15 0 9 -9 15 -22 15 -25 1 -58 22 -58 37 0 6 -23 13 -50 15 -31 3
-59 13 -73 25 -29 27 -97 21 -97 -8 0 -10 -4 -19 -10 -19 -5 0 -10 9 -10 20 0
11 5 20 10 20 20 0 10 39 -12 45 -13 4 -32 15 -43 25 -28 24 -95 16 -95 -11 0
-10 -4 -19 -10 -19 -5 0 -10 9 -10 20 0 11 5 20 10 20 20 0 10 39 -12 45 -13
4 -33 16 -45 27 -12 11 -26 17 -32 14 -11 -7 -47 9 -69 31 -7 7 -19 13 -26 13
-7 0 -21 9 -31 20 -10 12 -25 18 -33 15 -14 -5 -48 10 -70 32 -7 7 -20 13 -28
13 -18 0 -113 47 -132 66 -7 8 -20 14 -28 14 -18 0 -113 47 -132 66 -7 8 -23
14 -35 14 -28 0 -137 52 -137 66 0 6 -18 14 -40 18 -22 3 -40 11 -40 16 0 6
-7 10 -15 10 -24 0 -65 22 -65 35 0 17 -70 27 -87 13 -11 -9 -13 -8 -11 3 2 8
7 17 11 20 5 3 0 9 -11 11 -14 4 -19 2 -15 -8 8 -22 -6 -35 -27 -24 -13 7 -21
6 -30 -5 -9 -11 -9 -15 -1 -15 6 0 11 -10 10 -22 l0 -23 -9 23 c-5 12 -12 22
-14 22 -3 0 -3 -6 0 -14 4 -11 -1 -14 -16 -13 -19 1 -17 6 22 41 294 270 640
613 871 866 534 585 1019 1245 1419 1930 577 989 1000 2053 1252 3150 197 860
288 1661 288 2555 1 752 -51 1341 -182 2065 -293 1617 -954 3179 -1919 4530
-823 1153 -1894 2177 -3074 2939 -1909 1232 -4090 1853 -6377 1814z m-2640
-10102 c68 -21 141 -65 185 -111 l29 -30 -35 -36 c-19 -20 -56 -54 -82 -76
l-48 -41 -32 31 c-95 92 -249 97 -343 10 -117 -108 -102 -321 29 -402 93 -57
220 -46 302 26 l45 40 69 -61 c101 -89 99 -86 66 -121 -137 -143 -396 -180
-595 -84 -337 161 -344 648 -11 823 116 61 285 74 421 32z m3240 0 c67 -21
141 -65 185 -111 l29 -30 -25 -26 c-13 -14 -50 -49 -82 -76 l-57 -50 -39 35
c-56 50 -117 71 -194 65 -70 -6 -108 -22 -151 -65 -48 -46 -71 -108 -70 -188
0 -60 4 -79 30 -125 76 -134 261 -162 379 -58 l45 40 69 -61 c101 -89 99 -86
65 -122 -136 -142 -402 -179 -600 -82 -274 133 -337 521 -120 739 62 61 178
121 261 134 81 12 201 4 275 -19z m3327 19 c80 -10 191 -44 212 -65 12 -12 9
-26 -19 -97 -18 -46 -36 -87 -40 -91 -4 -5 -35 3 -70 18 -106 45 -257 49 -301
9 -27 -24 -25 -70 4 -89 13 -8 84 -30 159 -49 195 -49 266 -91 302 -178 19
-44 21 -125 4 -180 -50 -167 -317 -250 -583 -182 -80 21 -175 64 -175 80 0 9
65 166 76 182 1 2 24 -8 51 -21 144 -73 338 -84 379 -22 20 31 10 61 -26 80
-16 8 -90 30 -165 50 -76 19 -156 46 -180 59 -92 54 -132 131 -122 239 17 188
217 293 494 257z m-5677 -460 l0 -450 -130 0 -130 0 0 450 0 450 130 0 130 0
0 -450z m1014 435 c120 -25 207 -93 253 -195 10 -22 16 -66 17 -120 1 -69 -4
-95 -23 -137 -22 -49 -82 -116 -126 -141 -18 -10 -13 -20 73 -145 50 -75 92
-138 92 -141 0 -3 -61 -6 -134 -6 l-135 0 -82 120 -83 120 -68 0 -68 0 0 -120
0 -120 -125 0 -125 0 0 450 0 450 233 0 c165 0 252 -5 301 -15z m2226 -330 l0
-345 210 0 210 0 0 -105 0 -105 -340 0 -340 0 0 450 0 450 130 0 130 0 0 -345z
m1530 245 l0 -100 -225 0 -225 0 0 -75 0 -75 200 0 200 0 0 -95 0 -95 -200 0
-200 0 0 -80 0 -80 235 0 235 0 0 -100 0 -100 -365 0 -365 0 0 450 0 450 355
0 355 0 0 -100z m-5639 -1358 c97 -27 229 -112 229 -147 0 -7 -35 -44 -78 -82
l-77 -70 -44 38 c-43 39 -119 69 -171 69 -44 0 -119 -26 -157 -55 -81 -63
-109 -214 -59 -322 62 -132 245 -172 367 -80 23 18 48 36 54 41 9 7 36 -11 89
-59 42 -38 76 -74 76 -81 0 -17 -69 -75 -128 -107 -103 -56 -273 -74 -397 -42
-186 49 -321 199 -344 381 -30 244 103 449 333 515 83 24 223 24 307 1z m2471
7 c72 -15 164 -60 218 -107 52 -46 54 -39 -51 -133 l-68 -60 -46 35 c-192 147
-441 23 -423 -208 6 -67 26 -115 67 -159 58 -63 162 -89 256 -65 l50 13 5 125
5 125 113 3 112 3 -2 -193 -3 -193 -62 -33 c-143 -75 -333 -94 -482 -47 -136
43 -244 143 -296 275 -22 57 -31 200 -16 269 36 167 165 298 343 345 64 18
208 20 280 5z m2559 -7 c128 -34 249 -132 303 -247 15 -29 31 -88 38 -130 22
-144 -18 -277 -118 -384 -93 -101 -218 -151 -374 -151 -242 0 -429 133 -485
345 -29 114 -13 245 42 347 54 98 176 190 296 223 72 19 217 18 298 -3z
m-7592 -18 c72 -20 142 -71 166 -120 30 -60 26 -148 -7 -205 -15 -25 -39 -54
-54 -63 l-26 -18 50 -33 c110 -74 135 -225 56 -332 -14 -18 -53 -46 -91 -65
l-68 -33 -322 -3 -323 -3 0 445 0 446 282 0 c225 0 293 -3 337 -16z m1271
-126 c34 -79 117 -264 183 -413 66 -148 126 -285 133 -303 l15 -33 -137 3
-136 3 -32 80 -32 80 -188 0 -188 0 -32 -80 -32 -80 -132 -3 c-73 -1 -132 0
-132 3 0 2 78 181 174 397 95 216 183 414 194 441 l21 47 129 0 129 0 63 -142z
m2202 -34 l3 -176 164 176 163 176 145 0 145 0 -181 -194 c-100 -107 -181
-197 -181 -200 0 -4 83 -114 185 -246 102 -131 185 -242 185 -245 0 -3 -66 -5
-147 -5 l-148 0 -110 141 c-60 77 -116 148 -123 157 -11 14 -17 11 -57 -28
l-45 -44 0 -113 0 -113 -130 0 -130 0 0 445 0 445 130 0 130 0 2 -176z m2836
158 c106 -34 189 -109 220 -201 7 -19 12 -70 12 -115 -1 -117 -36 -188 -124
-251 l-43 -30 93 -135 c52 -74 94 -136 94 -137 0 -2 -62 -3 -138 -3 l-138 0
-78 115 -77 115 -70 0 -69 0 0 -115 0 -115 -130 0 -130 0 0 445 0 445 259 0
c224 0 267 -3 319 -18z m2314 -264 c3 -267 4 -286 25 -331 50 -107 200 -116
275 -16 29 39 38 128 38 387 l0 242 125 0 125 0 0 -283 c0 -308 -6 -355 -57
-449 -34 -63 -80 -103 -163 -142 -63 -30 -69 -31 -200 -31 -117 1 -143 4 -192
24 -80 31 -158 105 -192 180 -37 82 -45 168 -46 454 l0 247 129 0 130 0 3
-282z m1470 50 l193 -233 3 233 2 232 125 0 125 0 0 -445 0 -445 -109 0 -110
0 -188 227 -188 227 -3 -227 -2 -227 -130 0 -130 0 0 445 0 445 109 0 109 0
194 -232z m1560 204 c140 -56 238 -156 274 -279 21 -71 21 -205 0 -277 -36
-122 -135 -223 -271 -277 -57 -22 -74 -24 -347 -27 l-288 -3 0 446 0 446 288
-3 c272 -3 290 -5 344 -26z m1203 -8321 c3 -5 2 -12 -3 -15 -5 -3 -9 1 -9 9 0
17 3 19 12 6z m892 -347 c-3 -3 -12 -4 -19 -1 -8 3 -5 6 6 6 11 1 17 -2 13 -5z
m160 -80 c-3 -3 -12 -4 -19 -1 -8 3 -5 6 6 6 11 1 17 -2 13 -5z m196 -111
c-13 -2 -33 -2 -45 0 -13 2 -3 4 22 4 25 0 35 -2 23 -4z m160 -80 c-13 -2 -33
-2 -45 0 -13 2 -3 4 22 4 25 0 35 -2 23 -4z m497 -223 c0 -11 -68 -25 -77 -16
-4 3 6 6 21 6 16 0 25 4 21 10 -3 6 3 10 14 10 12 0 21 -4 21 -10z m160 -80
c0 -11 -68 -25 -77 -16 -4 3 6 6 21 6 16 0 25 4 21 10 -3 6 3 10 14 10 12 0
21 -4 21 -10z m1147 -546 c-3 -3 -12 -4 -19 -1 -8 3 -5 6 6 6 11 1 17 -2 13
-5z m160 -80 c-3 -3 -12 -4 -19 -1 -8 3 -5 6 6 6 11 1 17 -2 13 -5z m196 -111
c-13 -2 -33 -2 -45 0 -13 2 -3 4 22 4 25 0 35 -2 23 -4z m160 -80 c-13 -2 -33
-2 -45 0 -13 2 -3 4 22 4 25 0 35 -2 23 -4z m497 -223 c0 -11 -68 -25 -77 -16
-4 3 6 6 21 6 16 0 25 4 21 10 -3 6 3 10 14 10 12 0 21 -4 21 -10z m160 -80
c0 -11 -68 -25 -77 -16 -4 3 6 6 21 6 16 0 25 4 21 10 -3 6 3 10 14 10 12 0
21 -4 21 -10z m1147 -546 c-3 -3 -12 -4 -19 -1 -8 3 -5 6 6 6 11 1 17 -2 13
-5z m160 -80 c-3 -3 -12 -4 -19 -1 -8 3 -5 6 6 6 11 1 17 -2 13 -5z m137 -35
c-4 -7 -44 0 -44 7 0 2 11 3 24 2 14 -1 23 -5 20 -9z"/>
<path d="M16760 23276 l0 -126 98 0 c117 0 158 16 186 73 23 48 15 96 -24 140
l-28 32 -116 3 -116 4 0 -126z"/>
<path d="M19980 21951 c-71 -23 -122 -66 -156 -131 -14 -26 -19 -56 -19 -115
0 -86 14 -125 64 -178 45 -49 98 -71 171 -71 112 0 194 62 226 170 35 121 -15
253 -117 304 -43 22 -132 33 -169 21z"/>
<path d="M12230 21886 l0 -86 113 0 c92 0 117 3 143 19 35 22 49 58 34 95 -15
40 -46 49 -172 54 l-118 4 0 -86z"/>
<path d="M12230 21529 l0 -91 138 4 c111 2 143 6 165 21 54 35 47 110 -13 139
-28 14 -61 18 -162 18 l-128 0 0 -91z"/>
<path d="M13627 21772 c-25 -64 -49 -125 -53 -134 -6 -16 3 -18 100 -18 58 0
106 4 106 8 0 9 -97 253 -103 259 -2 1 -24 -50 -50 -115z"/>
<path d="M18590 21820 l0 -130 78 0 c106 1 152 13 185 50 21 24 27 40 27 76 0
100 -51 134 -200 134 l-90 0 0 -130z"/>
<path d="M23880 21706 l0 -246 93 0 c209 0 307 78 307 245 0 80 -21 134 -66
177 -49 46 -99 61 -221 66 l-113 5 0 -247z"/>
<path d="M25659 13957 c6 -8 7 -18 3 -22 -4 -5 -1 -5 6 -1 10 6 10 11 1 22 -6
8 -14 14 -16 14 -3 0 0 -6 6 -13z"/>
<path d="M25580 13910 c0 -5 5 -10 11 -10 5 0 7 5 4 10 -3 6 -8 10 -11 10 -2
0 -4 -4 -4 -10z"/>
<path d="M25545 13881 c-3 -5 -2 -12 3 -15 5 -3 9 1 9 9 0 17 -3 19 -12 6z"/>
</g>
</svg>
